<svg width="360" height="360" viewBox="0 0 360 360" fill="none" xmlns="http://www.w3.org/2000/svg">
<path d="M96.032 213.64V194.44H83.616V142.472H65.696L21.024 197.128V213.64H61.728V229H83.616V213.64H96.032ZM44.832 194.44L61.728 173.192V194.44H44.832ZM103.879 185.864C103.879 214.408 116.295 230.28 138.695 230.28C161.095 230.28 173.511 214.408 173.511 185.864C173.511 157.192 160.839 141.192 138.695 141.192C116.551 141.192 103.879 157.192 103.879 185.864ZM126.535 185.864C126.535 169.864 130.887 160.904 138.695 160.904C146.503 160.904 150.855 169.736 150.855 185.864C150.855 201.864 146.503 210.568 138.695 210.568C130.631 210.568 126.535 201.864 126.535 185.864ZM184.504 185.864C184.504 214.408 196.92 230.28 219.32 230.28C241.72 230.28 254.136 214.408 254.136 185.864C254.136 157.192 241.464 141.192 219.32 141.192C197.176 141.192 184.504 157.192 184.504 185.864ZM207.16 185.864C207.16 169.864 211.512 160.904 219.32 160.904C227.128 160.904 231.48 169.736 231.48 185.864C231.48 201.864 227.128 210.568 219.32 210.568C211.256 210.568 207.16 201.864 207.16 185.864ZM265.129 185.864C265.129 214.408 277.545 230.28 299.945 230.28C322.345 230.28 334.761 214.408 334.761 185.864C334.761 157.192 322.089 141.192 299.945 141.192C277.801 141.192 265.129 157.192 265.129 185.864ZM287.785 185.864C287.785 169.864 292.137 160.904 299.945 160.904C307.753 160.904 312.105 169.736 312.105 185.864C312.105 201.864 307.753 210.568 299.945 210.568C291.881 210.568 287.785 201.864 287.785 185.864Z" fill="black"/>
<style>
@media (prefers-color-scheme:dark){:root{filter:invert(100%)}}
</style>
</svg>
