<?xml version="1.0" standalone="no"?>
<!DOCTYPE svg PUBLIC "-//W3C//DTD SVG 20010904//EN"
 "http://www.w3.org/TR/2001/REC-SVG-20010904/DTD/svg10.dtd">
<svg version="1.0" xmlns="http://www.w3.org/2000/svg"
 width="700.000000pt" height="700.000000pt" viewBox="0 0 700.000000 700.000000"
 preserveAspectRatio="xMidYMid meet">
<metadata>
Created by potrace 1.14, written by Peter Selinger 2001-2017
</metadata>
<g transform="translate(0.000000,700.000000) scale(0.100000,-0.100000)"
fill="#000000" stroke="none">
<path d="M2596 4248 c-90 -11 -190 -46 -259 -92 -170 -113 -264 -289 -306
-571 -10 -64 -7 -380 4 -430 10 -48 16 -78 21 -110 9 -50 62 -178 99 -241 49
-81 147 -172 230 -212 37 -19 75 -35 84 -37 9 -2 36 -8 61 -15 74 -20 258 -18
355 4 127 29 258 120 337 234 61 88 119 248 133 367 4 28 8 61 11 75 6 37 6
287 -1 345 -43 355 -201 584 -455 659 -93 28 -207 36 -314 24z m169 -392 c83
-35 125 -117 160 -311 6 -36 6 -266 0 -315 -29 -216 -104 -321 -231 -322 -159
0 -238 176 -229 512 4 163 21 255 62 335 51 98 147 139 238 101z"/>
<path d="M4200 4253 c-334 -39 -522 -233 -594 -613 -21 -109 -16 -439 8 -545
38 -173 91 -285 177 -379 153 -168 386 -228 662 -171 161 33 316 165 395 337
29 63 69 202 79 275 10 71 11 381 1 443 -27 175 -67 287 -140 395 -73 106
-148 164 -288 223 -56 24 -225 43 -300 35z m127 -394 c78 -29 136 -130 160
-278 10 -60 10 -321 0 -389 -26 -180 -108 -283 -228 -284 -109 0 -180 87 -214
267 -16 80 -18 311 -4 400 34 219 151 335 286 284z"/>
<path d="M5686 4239 c-160 -33 -266 -96 -356 -214 -118 -154 -173 -361 -173
-645 0 -473 182 -772 513 -840 70 -15 228 -18 298 -7 143 22 289 110 372 223
118 159 171 370 165 659 -4 181 -7 204 -41 334 -63 242 -218 418 -419 476
-113 33 -244 38 -359 14z m225 -389 c52 -27 95 -88 119 -169 29 -98 31 -114
35 -261 8 -332 -74 -510 -234 -512 -127 -1 -209 119 -227 331 -24 271 13 480
100 574 53 57 137 72 207 37z"/>
<path d="M1205 4143 c-175 -217 -711 -873 -750 -918 l-44 -50 2 -165 2 -164
393 0 392 0 0 -148 c0 -125 2 -148 15 -149 19 -1 301 -1 363 0 l48 1 -1 138
c-1 75 0 142 2 148 2 6 42 10 106 9 56 0 109 1 118 3 15 3 17 26 17 188 l1
183 -122 3 -122 3 0 503 0 502 -175 0 -175 0 -70 -87z m-5 -718 l0 -205 -161
0 c-88 0 -159 4 -157 8 3 9 311 400 316 401 1 1 2 -91 2 -204z"/>
</g>
</svg>
